# xmcd CD database file
#
# Track frame offsets:
#	150
#	14882
#	25877
#	37535
#	57405
#	69785
#	80922
#	94620
#	109810
#	118412
#	130022
#	149562
#	167832
#	175645
#
# Disc length: 2534 seconds
#
# Revision: 0
# Processed by: cddbd v1.5.2PL0 Copyright (c) Steve Scherf et al.
# Submitted via: CDex 1.51
#
DISCID=be09e40e
DTITLE=Cross Tie Walkers - Still in a plain mood
DYEAR=1900
DGENRE=Country
TTITLE0=Shirley Lee
TTITLE1=Synnyland train
TTITLE2=I know what it takes to keep her mine
TTITLE3=I cant forget
TTITLE4=Dough loaner
TTITLE5=OH babe
TTITLE6=Ida mae
TTITLE7=Crazy baby
TTITLE8=Statesboro blues
TTITLE9=Harp on
TTITLE10=Im blue
TTITLE11=I wanna stop this game
TTITLE12=Lets do the boogie
TTITLE13=In a plain mood
EXTD=
EXTT0=
EXTT1=
EXTT2=
EXTT3=
EXTT4=
EXTT5=
EXTT6=
EXTT7=
EXTT8=
EXTT9=
EXTT10=
EXTT11=
EXTT12=
EXTT13=
PLAYORDER=
